<svg width="257" height="180" viewBox="0 0 257 180" fill="none" xmlns="http://www.w3.org/2000/svg">
<path d="M16.6322 167.338V128.571H10.28V167.338H16.6322Z" fill="#152C4F"/>
<path d="M20.5201 154.416C20.5201 162.336 25.8311 167.963 33.9014 167.963C41.9717 167.963 47.2826 162.336 47.2826 154.416C47.2826 146.496 41.9717 140.868 33.9014 140.868C25.8311 140.868 20.5201 146.496 20.5201 154.416ZM26.9244 154.416C26.9244 149.779 29.684 146.548 33.9014 146.548C38.1188 146.548 40.8784 149.779 40.8784 154.416C40.8784 159.001 38.1188 162.284 33.9014 162.284C29.684 162.284 26.9244 159.001 26.9244 154.416Z" fill="#152C4F"/>
<path d="M49.419 153.895C49.419 161.398 54.2612 166.817 61.4986 166.817C65.2474 166.817 68.4756 165.306 70.0896 162.805V167.182C70.0896 171.402 67.4342 174.216 63.0084 174.216C59.0514 174.216 56.3439 172.288 55.9795 168.901H49.5753C50.4082 175.623 55.5629 180 62.644 180C70.9749 180 76.2856 174.529 76.2856 166.036V141.598H70.6624L70.298 145.089C68.7359 142.379 65.5078 140.764 61.7067 140.764C54.3653 140.764 49.419 146.339 49.419 153.895ZM55.8754 153.739C55.8754 149.466 58.5829 146.339 62.5921 146.339C66.9657 146.339 69.8814 149.518 69.8814 153.739C69.8814 158.011 66.9657 161.294 62.5921 161.294C58.6348 161.294 55.8754 158.063 55.8754 153.739Z" fill="#152C4F"/>
<path d="M79.4292 154.416C79.4292 162.336 84.7401 167.963 92.8104 167.963C100.881 167.963 106.192 162.336 106.192 154.416C106.192 146.496 100.881 140.868 92.8104 140.868C84.7401 140.868 79.4292 146.496 79.4292 154.416ZM85.8334 154.416C85.8334 149.779 88.593 146.548 92.8104 146.548C97.0278 146.548 99.7874 149.779 99.7874 154.416C99.7874 159.001 97.0278 162.284 92.8104 162.284C88.593 162.284 85.8334 159.001 85.8334 154.416Z" fill="#152C4F"/>
<path d="M113.066 136.335C115.149 136.335 116.867 134.668 116.867 132.531C116.867 130.447 115.149 128.78 113.066 128.78C110.931 128.78 109.317 130.447 109.317 132.531C109.317 134.668 110.931 136.335 113.066 136.335ZM109.89 167.338H116.242V141.598H109.89V167.338Z" fill="#152C4F"/>
<path d="M121.807 179.27H128.003V163.795C129.617 166.452 133.106 168.016 136.959 168.016C144.561 168.016 149.091 162.18 148.986 154.155C148.83 146.079 144.196 140.816 136.907 140.816C133.002 140.816 129.461 142.536 127.899 145.506L127.535 141.598H121.807V179.27ZM128.264 154.468C128.264 149.831 131.075 146.6 135.501 146.6C139.927 146.6 142.582 149.883 142.582 154.468C142.582 159.053 139.927 162.284 135.501 162.284C131.075 162.284 128.264 159.106 128.264 154.468Z" fill="#152C4F"/>
<path d="M150.599 159.627C150.808 164.733 154.765 168.016 160.908 168.016C166.948 168.016 171.062 164.785 171.062 159.783C171.062 156.083 168.771 153.582 164.553 152.54L160.023 151.446C158.097 150.925 156.795 150.248 156.795 148.58C156.795 146.809 158.201 145.558 160.492 145.558C162.887 145.558 164.449 146.913 164.449 149.153H170.229C170.02 144.047 166.219 140.816 160.648 140.816C155.129 140.816 151.016 144.047 151.016 148.945C151.016 152.28 152.942 155.041 157.889 156.344L162.366 157.49C164.033 157.959 165.074 158.741 165.074 160.2C165.074 162.232 163.147 163.17 160.804 163.17C157.993 163.17 156.379 161.867 156.379 159.627H150.599Z" fill="#152C4F"/>
<path d="M184.237 168.016C187.726 168.016 191.058 166.4 192.568 164.003L192.985 167.338H198.92V141.598H192.568V155.093C192.568 159.731 190.798 162.336 186.633 162.336C183.404 162.336 181.165 160.773 181.165 155.458V141.598H174.813V157.699C174.813 163.847 178.145 168.016 184.237 168.016Z" fill="#152C4F"/>
<path d="M210.879 167.338V152.54C210.879 148.372 213.326 146.392 216.346 146.392C219.366 146.392 221.345 148.319 221.345 151.967V167.338H227.541V152.592C227.541 148.372 229.936 146.392 232.956 146.392C236.028 146.392 238.006 148.319 238.006 151.967V167.338H244.15V150.508C244.15 144.568 240.87 140.816 234.622 140.816C230.717 140.816 227.645 142.692 226.395 145.714C224.989 142.692 222.178 140.816 217.908 140.816C214.888 140.816 212.181 142.223 210.671 144.516L210.358 141.598H204.527V167.338H210.879Z" fill="#152C4F"/>
<path d="M111.762 93.4773C103.393 108.545 86.3543 115.714 69.1255 115.714H0C71.96 106.714 122.075 70.7143 128.5 20.5714C134.925 70.7143 185.04 106.714 257 115.714H187.874C170.646 115.714 153.607 108.545 145.238 93.4773C136.181 77.1686 130.41 58.7145 128.5 38.5714C126.59 58.7145 120.819 77.1686 111.762 93.4773Z" fill="#1A4688"/>
<path d="M72.2301 88.1519C68.1934 90.4258 63.9473 92.5617 59.5012 94.5512C56.9756 85.8222 56.0463 76.6641 56.7875 67.5411C57.7679 55.4721 61.6417 43.8367 68.0657 33.6659C74.4899 23.4951 83.2657 15.1025 93.6161 9.23163C103.967 3.3608 115.572 0.192882 127.405 0.00853604C139.237 -0.175835 150.931 2.62905 161.452 8.17473C171.972 13.7204 180.994 21.8355 187.717 31.8016C194.441 41.7677 198.659 53.2769 199.998 65.3097C201.093 75.1518 200.235 85.096 197.499 94.5512C193.053 92.5617 188.807 90.4256 184.77 88.1517C186.472 81.2391 186.949 74.0479 186.156 66.923C185.076 57.2197 181.674 47.9386 176.253 39.9021C170.831 31.8657 163.556 25.3214 155.072 20.8494C146.589 16.3773 137.158 14.1155 127.617 14.2642C118.075 14.4128 108.716 16.9674 100.37 21.7016C92.0232 26.4358 84.9462 33.2036 79.7659 41.4054C74.5855 49.6072 71.4617 58.9899 70.6711 68.7225C70.1397 75.2642 70.6732 81.8285 72.2301 88.1519Z" fill="#7FB5E6"/>
</svg>
