<svg width="175" height="37" viewBox="0 0 175 37" fill="none" xmlns="http://www.w3.org/2000/svg">
<path d="M136.666 6.3374L133.274 16.9595L129.959 6.3374H125.538L124.333 10.2426L123.296 13.6026L122.261 16.9595L121.396 14.2524L121.04 13.1383L119.548 8.46442C118.578 8.37858 117.689 8.89303 117.016 9.67407C116.462 10.3164 115.989 11.2643 115.492 12.2551L119.67 25.3881H124.395L127.749 14.5024L131.141 25.3881H135.828L141.926 6.3374H136.666Z" fill="#2B388F"/>
<path d="M17.1807 15.921C17.1807 9.83558 21.6021 5.94214 27.5847 5.94214C33.5301 5.94214 37.4557 10.2509 37.4557 15.6188C37.4557 15.6188 37.4557 16.5633 37.3792 17.4332H22.8586C22.9741 19.7008 24.9556 21.1752 27.9659 21.1752C29.9474 21.1752 31.3194 20.5698 32.654 19.3227L35.9691 22.4601C33.4165 25.0677 30.6334 25.9377 27.6996 25.9377C21.4494 25.9377 17.1807 22.0439 17.1807 16.0715V15.921ZM31.7388 13.7662C31.7388 12.0273 29.871 10.591 27.5847 10.591C25.1077 10.591 23.0878 11.9895 22.9351 13.7662H31.7388Z" fill="#009C9C"/>
<path d="M15.7835 15.5626C15.7835 13.7239 16.1931 12.0896 16.9214 10.698H5.86894V5.29231H17.4928V0H0V25.3495H5.86894V15.8763H15.7908C15.7902 15.821 15.7835 15.7687 15.7835 15.7134V15.5626Z" fill="#009C9C"/>
<path d="M38.9192 6.33758H44.5971V8.71883C45.3212 7.05579 47.2271 5.92261 49.5899 5.92261C52.219 5.92261 53.9338 6.98083 54.8109 8.94614C56.0683 6.56491 58.4691 5.92261 61.1373 5.92261C65.4815 5.92261 67.8824 8.90835 67.8824 13.8222V18.6228C67.8824 20.0213 68.1115 20.6258 69.1404 20.6258C69.369 20.6258 69.6362 20.5881 69.7118 20.5881V25.3505C69.5972 25.3883 68.7594 25.6156 67.2729 25.6156C64.2625 25.6156 62.2045 24.1792 62.2045 20.1718V14.5026C62.2045 12.31 61.2518 10.9114 59.4215 10.9114C57.593 10.9114 56.2975 12.4617 56.2975 14.6912V25.3883H50.6187V14.5026C50.6187 12.31 49.6279 10.9114 47.7604 10.9114C45.9316 10.9114 44.5971 12.4617 44.5971 14.6912V25.3883H38.9192V6.33758Z" fill="#009C9C"/>
<path d="M71.071 6.3376H76.7498V8.83248C77.2831 7.20751 79.5309 5.99756 82.4666 5.99756C87.9153 5.99756 91.9938 10.3447 91.9938 15.8634C91.9938 21.344 87.9153 25.7286 82.4666 25.7286C79.5309 25.7286 77.2831 24.5574 76.7498 22.8934V30.959H71.071V6.3376ZM81.4378 20.6258C84.1815 20.6258 86.316 18.5469 86.316 15.8634C86.316 13.1799 84.1815 11.101 81.4378 11.101C78.6548 11.101 76.4069 13.1799 76.4069 15.8634C76.4069 18.5469 78.6548 20.6258 81.4378 20.6258Z" fill="#2B388F"/>
<path d="M101.745 5.99736C107.536 4.84363 113.092 8.28609 114.21 13.8081C115.328 19.3301 111.543 24.6333 105.752 25.7871C99.923 26.9481 94.404 23.4983 93.2858 17.9763C92.1677 12.4543 95.9155 7.15835 101.745 5.99736ZM104.739 20.7834C107.466 20.24 109.198 17.6595 108.642 14.9171C108.095 12.2119 105.485 10.4566 102.758 11.0001C99.9925 11.5508 98.3054 14.1621 98.8534 16.8673C99.4086 19.6097 101.974 21.3341 104.739 20.7834Z" fill="#2B388F"/>
<path d="M140.716 15.8256C140.716 9.74012 145.136 5.84668 151.119 5.84668C157.065 5.84668 160.991 10.1554 160.991 15.5233C160.991 15.5233 160.991 16.4679 160.914 17.3378H146.394C146.509 19.6054 148.49 21.0798 151.501 21.0798C153.483 21.0798 154.855 20.4744 156.188 19.2272L159.504 22.3647C156.951 24.9723 154.169 25.8422 151.235 25.8422C144.984 25.8422 140.716 21.9485 140.716 15.9761V15.8256ZM155.274 13.6707C155.274 11.9318 153.406 10.4955 151.119 10.4955C148.642 10.4955 146.623 11.8941 146.47 13.6707H155.274Z" fill="#2B388F"/>
<path d="M162.272 6.33761H167.95V8.94614C168.827 7.01801 170.884 5.92261 173.514 5.92261C174.048 5.92261 174.696 5.99757 175 6.03535V11.3274C174.467 11.2137 173.819 11.1378 173.095 11.1378C169.855 11.1378 167.95 12.9904 167.95 16.0898V25.3883H162.272V6.33761Z" fill="#2B388F"/>
<path d="M114.764 30.2668C114.794 32.4158 113.758 34.441 112.082 35.7165C111.427 36.2183 110.659 36.5871 109.836 36.8138C107.593 37.4243 104.908 36.5024 103.814 34.5135C103.204 33.4042 103.482 32.0622 104.628 31.7418C104.896 31.6662 105.191 31.6904 105.472 31.7841C105.664 31.8446 105.688 32.0954 105.508 32.1499C105.274 32.2194 105.07 32.3826 104.981 32.6002C104.707 33.2743 105.326 34.0178 105.987 34.302C107.587 34.9821 109.516 34.2808 110.406 33.0778C111.314 31.8415 110.863 30.3665 109.854 29.1454C107.748 26.6033 101.739 24.0583 102.869 20.2468C103.18 19.1919 104.103 18.4997 105.167 18.137C105.396 18.0584 105.63 18.0251 105.865 18.0251C106.621 18.0251 107.373 18.3697 107.91 18.7173C107.736 19.204 107.407 19.7752 106.88 20.2165C106.88 20.2165 106.938 20.3193 107.054 20.4553C107.913 21.4468 108.861 22.4019 109.894 23.2331C112.21 25.0981 114.718 27.2441 114.764 30.2668Z" fill="url(#paint0_linear_170_2696)"/>
<path d="M122.437 11.5536C120.585 13.2402 118.433 12.2518 117.881 11.3178C117.75 11.1002 117.708 10.8463 117.729 10.5893C117.744 10.4201 117.936 10.3868 118.058 10.5077C118.247 10.6891 118.406 10.7647 118.591 10.8916C119.332 11.3903 120.941 11.874 121.904 9.79742C122.8 7.85992 121.319 6.40906 120.054 6.03728C118.643 5.62016 117.202 6.14307 116.303 7.18588C114.429 9.35911 113.435 14.8724 109.665 14.4674C108.623 14.3555 107.779 13.6694 107.203 12.817C106.685 12.0432 107.697 11.9102 107.962 11.2422C108.242 11.3238 108.309 11.2332 108.346 11.1455C108.388 11.0367 108.388 10.9309 108.66 11.1123C108.66 11.1123 108.818 10.9793 108.919 10.8614C109.638 9.97878 110.308 9.02665 110.842 8.02314C112.042 5.76827 113.459 3.30785 116.236 2.82423C116.611 2.75773 116.992 2.72754 117.369 2.72754C118.988 2.72754 120.606 3.30486 121.865 4.31139C122.471 4.79803 122.986 5.39954 123.376 6.07056C124.446 7.89619 123.922 10.2025 122.437 11.5536Z" fill="url(#paint1_linear_170_2696)"/>
<path d="M110.555 12.6751C108.516 14.4615 107.73 14.1683 106.986 13.1104C106.575 12.524 106.545 11.7653 106.545 11.7653C106.545 11.7653 107.029 11.7079 107.294 11.4449C108.745 10.0182 109.126 9.22327 109.254 8.12001C109.327 7.5034 108.958 6.96235 108.958 6.96235C109.263 6.72356 109.525 6.67218 109.744 6.63893C109.863 6.62381 109.979 6.61475 110.095 6.61475C111.204 6.61475 112.112 7.38854 112.277 8.63688C112.46 10.0152 111.68 11.6897 110.555 12.6751Z" fill="url(#paint2_linear_170_2696)"/>
<path d="M101.742 12.0523C101.062 12.1308 100.325 11.5868 100.325 11.5868C100.325 11.5868 100.169 11.3117 100.011 10.943C99.5931 9.9606 98.7947 8.86943 97.9444 8.12889C97.4294 7.68154 97.0881 7.6362 97.0881 7.6362C96.8534 7.24629 96.6675 6.3395 96.698 6.03119C96.7925 5.10022 97.469 4.55615 98.3741 4.55615C98.6789 4.55615 99.005 4.6166 99.3493 4.74355C100.712 5.25438 102.077 6.76569 102.68 8.24677C103.774 10.9369 102.97 11.9072 101.742 12.0523Z" fill="url(#paint3_linear_170_2696)"/>
<path d="M101.263 12.7869C100.559 13.3068 99.5779 13.1466 99.5779 13.1466C99.5779 13.1466 99.3128 12.9289 99.0141 12.6055C98.2187 11.7441 96.9723 11.0005 95.802 10.6862C95.0889 10.4988 94.7079 10.6589 94.7079 10.6589C94.3179 10.3597 93.7967 9.44083 93.7206 9.06905C93.4188 7.57285 94.4642 6.20965 96.1068 5.93459C96.311 5.90134 96.5212 5.88623 96.7346 5.88623C98.234 5.88623 99.8949 6.69629 100.922 7.84791C103.049 10.2358 102.528 11.8499 101.263 12.7869Z" fill="url(#paint4_linear_170_2696)"/>
<path d="M94.9579 25.5515C95.3876 26.5218 96.5426 27.3258 97.6458 27.1354C98.1029 27.0538 98.5844 26.6548 98.4839 26.15C98.4534 25.9838 98.3406 25.8417 98.2004 25.7541C98.0907 25.6845 98.1364 25.5213 98.2644 25.5092C98.4564 25.4941 98.6484 25.5303 98.81 25.6241C99.5078 26.0382 99.5292 26.9964 99.0111 27.6492C98.0816 28.816 96.2561 28.9852 94.8908 28.1873C94.391 27.8971 93.943 27.5132 93.5804 27.0628C92.6539 25.9112 92.2242 24.3576 92.4924 22.9007C92.8703 20.8544 94.7232 19.8206 96.4207 18.9471C97.1765 18.5572 97.8926 18.0675 98.557 17.5386C98.6484 17.469 98.749 17.3511 98.749 17.3511C98.6881 17.061 98.5844 16.6982 98.6454 16.0514C98.7795 16.0272 98.9136 16.0151 99.0476 16.0151C99.3859 16.0151 99.712 16.0967 100.035 16.2842C100.696 16.671 101.184 17.339 101.26 18.1098C101.547 20.8936 97.405 21.6009 95.7655 22.9732C94.9792 23.6291 94.519 24.5571 94.9579 25.5515Z" fill="url(#paint5_linear_170_2696)"/>
<defs>
<linearGradient id="paint0_linear_170_2696" x1="104.258" y1="27.5126" x2="114.227" y2="27.5126" gradientUnits="userSpaceOnUse">
<stop stop-color="#00549E"/>
<stop offset="0.0042" stop-color="#00549E"/>
<stop offset="1" stop-color="#4BAB86"/>
</linearGradient>
<linearGradient id="paint1_linear_170_2696" x1="108.994" y1="8.60802" x2="120.016" y2="8.60802" gradientUnits="userSpaceOnUse">
<stop stop-color="#00549E"/>
<stop offset="0.0042" stop-color="#00549E"/>
<stop offset="0.9991" stop-color="#45AC9C"/>
<stop offset="1" stop-color="#45AC9C"/>
</linearGradient>
<linearGradient id="paint2_linear_170_2696" x1="107.305" y1="10.2874" x2="111.151" y2="10.2874" gradientUnits="userSpaceOnUse">
<stop stop-color="#0A4E9B"/>
<stop offset="0.0042" stop-color="#0A4E9B"/>
<stop offset="1" stop-color="#0BA580"/>
</linearGradient>
<linearGradient id="paint3_linear_170_2696" x1="98.4869" y1="8.30807" x2="103.038" y2="8.30807" gradientUnits="userSpaceOnUse">
<stop stop-color="#2B388F"/>
<stop offset="0.0042" stop-color="#2B388F"/>
<stop offset="1" stop-color="#00A69C"/>
</linearGradient>
<linearGradient id="paint4_linear_170_2696" x1="96.068" y1="9.52804" x2="99.1653" y2="9.52804" gradientUnits="userSpaceOnUse">
<stop stop-color="#0F4C9A"/>
<stop offset="0.0021" stop-color="#0F4C9A"/>
<stop offset="0.9949" stop-color="#00A68B"/>
<stop offset="1" stop-color="#00A68B"/>
</linearGradient>
<linearGradient id="paint5_linear_170_2696" x1="94.0775" y1="22.347" x2="98.4822" y2="22.347" gradientUnits="userSpaceOnUse">
<stop stop-color="#064F9B"/>
<stop offset="0.0042" stop-color="#064F9B"/>
<stop offset="1" stop-color="#17A576"/>
</linearGradient>
</defs>
</svg>
