<svg width="32" height="32" viewBox="0 0 32 32" fill="none" xmlns="http://www.w3.org/2000/svg">
<rect x="0.5" y="0.5" width="31" height="31" rx="15.5" stroke="black"/>
<path d="M15.8472 14.5185V22.5185M15.8472 14.5185C16.6826 14.5185 17.3599 13.8552 17.3599 13.037C17.3599 12.2188 16.6826 11.5555 15.8472 11.5555M15.8472 14.5185C15.0118 14.5185 14.3345 13.8552 14.3345 13.037C14.3345 12.2188 15.0118 11.5555 15.8472 11.5555M15.8472 9.48145V11.5555M21.2928 20.4444V22.5185M21.2928 20.4444C22.1282 20.4444 22.8055 19.7811 22.8055 18.9629C22.8055 18.1447 22.1282 17.4814 21.2928 17.4814M21.2928 20.4444C20.4574 20.4444 19.7801 19.7811 19.7801 18.9629C19.7801 18.1447 20.4574 17.4814 21.2928 17.4814M21.2928 9.48145V17.4814M10.4016 18.074V22.5185M10.4016 18.074C11.237 18.074 11.9143 17.4108 11.9143 16.5926C11.9143 15.7744 11.237 15.1111 10.4016 15.1111M10.4016 18.074C9.56616 18.074 8.88892 17.4108 8.88892 16.5926C8.88892 15.7744 9.56616 15.1111 10.4016 15.1111M10.4016 9.48145V15.1111" stroke="black" stroke-linecap="round" stroke-linejoin="round"/>
</svg>
