<svg width="50" height="50" viewBox="0 0 50 50" fill="none" xmlns="http://www.w3.org/2000/svg">
<path d="M13 43C17.4183 43 21 39.4183 21 35C21 30.5817 17.4183 27 13 27C8.58172 27 5 30.5817 5 35C5 39.4183 8.58172 43 13 43ZM13 43C10.6713 43 8.37463 43.5422 6.2918 44.5836C4.20896 45.625 2.39721 47.1371 1 49M13 43C15.3287 43 17.6254 43.5422 19.7082 44.5836C21.791 45.625 23.6028 47.1371 25 49C26.3972 47.1371 28.209 45.625 30.2918 44.5836C32.3746 43.5422 34.6713 43 37 43M13 17C17.4183 17 21 13.4183 21 9C21 4.58172 17.4183 1 13 1C8.58172 1 5 4.58172 5 9C5 13.4183 8.58172 17 13 17ZM13 17C10.6713 17 8.37463 17.5422 6.2918 18.5836C4.20896 19.625 2.39721 21.1371 1 23M13 17C15.3287 17 17.6254 17.5422 19.7082 18.5836C21.791 19.625 23.6028 21.1371 25 23C26.3972 21.1371 28.209 19.625 30.2918 18.5836C32.3746 17.5422 34.6713 17 37 17M37 43C41.4183 43 45 39.4183 45 35C45 30.5817 41.4183 27 37 27C32.5817 27 29 30.5817 29 35C29 39.4183 32.5817 43 37 43ZM37 43C39.3287 43 41.6254 43.5422 43.7082 44.5836C45.791 45.625 47.6028 47.1371 49 49M37 17C41.4183 17 45 13.4183 45 9C45 4.58172 41.4183 1 37 1C32.5817 1 29 4.58172 29 9C29 13.4183 32.5817 17 37 17ZM37 17C39.3287 17 41.6254 17.5422 43.7082 18.5836C45.791 19.625 47.6028 21.1371 49 23" stroke="#009C9C" stroke-width="2" stroke-linecap="round" stroke-linejoin="round"/>
</svg>
