<svg width="66" height="66" viewBox="0 0 66 66" fill="none" xmlns="http://www.w3.org/2000/svg">
<path d="M2.83333 22.3333H63.1667M2.83333 43.6667H63.1667M65 33C65 50.6731 50.6731 65 33 65C15.3269 65 1 50.6731 1 33C1 15.3269 15.3269 1 33 1C50.6731 1 65 15.3269 65 33ZM46.3333 33C46.3333 50.1945 40.3638 64.1333 33 64.1333C25.6362 64.1333 19.6667 50.1945 19.6667 33C19.6667 15.8055 25.6362 1.86667 33 1.86667C40.3638 1.86667 46.3333 15.8055 46.3333 33Z" stroke="#009C9C" stroke-width="2" stroke-miterlimit="10" stroke-linecap="round"/>
</svg>
